<svg xmlns="http://www.w3.org/2000/svg" xmlns:xlink="http://www.w3.org/1999/xlink" width="500" zoomAndPan="magnify" viewBox="0 0 375 374.999991" height="500" preserveAspectRatio="xMidYMid meet" version="1.0"><defs><clipPath id="c4ea518f3d"><path d="M 19.644531 19.644531 L 355.351562 19.644531 L 355.351562 355.351562 L 19.644531 355.351562 Z M 19.644531 19.644531 " clip-rule="nonzero"/></clipPath><clipPath id="7699960a06"><path d="M 187.5 19.644531 C 94.796875 19.644531 19.644531 94.796875 19.644531 187.5 C 19.644531 280.203125 94.796875 355.351562 187.5 355.351562 C 280.203125 355.351562 355.351562 280.203125 355.351562 187.5 C 355.351562 94.796875 280.203125 19.644531 187.5 19.644531 Z M 187.5 19.644531 " clip-rule="nonzero"/></clipPath><clipPath id="529f7f1d00"><path d="M 72 102 L 293 102 L 293 212 L 72 212 Z M 72 102 " clip-rule="nonzero"/></clipPath><clipPath id="c1c5353ff4"><path d="M 292.363281 46.324219 L 293.175781 315.574219 L 72.675781 316.238281 L 71.867188 46.988281 Z M 292.363281 46.324219 " clip-rule="nonzero"/></clipPath><clipPath id="fb8c872878"><path d="M 292.363281 46.324219 L 293.175781 315.574219 L 72.675781 316.238281 L 71.867188 46.988281 Z M 292.363281 46.324219 " clip-rule="nonzero"/></clipPath><clipPath id="06d4f8bf71"><path d="M 292.363281 46.324219 L 293.175781 315.574219 L 72.675781 316.238281 L 71.867188 46.988281 Z M 292.363281 46.324219 " clip-rule="nonzero"/></clipPath><clipPath id="05a308a0bc"><path d="M 126 47 L 269 47 L 269 316 L 126 316 Z M 126 47 " clip-rule="nonzero"/></clipPath><clipPath id="fe98cd199b"><path d="M 292.363281 46.324219 L 293.175781 315.574219 L 72.675781 316.238281 L 71.867188 46.988281 Z M 292.363281 46.324219 " clip-rule="nonzero"/></clipPath><clipPath id="b391be87f2"><path d="M 292.363281 46.324219 L 293.175781 315.574219 L 72.675781 316.238281 L 71.867188 46.988281 Z M 292.363281 46.324219 " clip-rule="nonzero"/></clipPath><clipPath id="b14e0d1c7c"><path d="M 292.363281 46.324219 L 293.175781 315.574219 L 72.675781 316.238281 L 71.867188 46.988281 Z M 292.363281 46.324219 " clip-rule="nonzero"/></clipPath><clipPath id="5d6ec1dc28"><path d="M 130 104 L 230 104 L 230 210 L 130 210 Z M 130 104 " clip-rule="nonzero"/></clipPath><clipPath id="f2293b98c0"><path d="M 292.363281 46.324219 L 293.175781 315.574219 L 72.675781 316.238281 L 71.867188 46.988281 Z M 292.363281 46.324219 " clip-rule="nonzero"/></clipPath><clipPath id="5877f0a057"><path d="M 292.363281 46.324219 L 293.175781 315.574219 L 72.675781 316.238281 L 71.867188 46.988281 Z M 292.363281 46.324219 " clip-rule="nonzero"/></clipPath><clipPath id="233e4084ff"><path d="M 292.363281 46.324219 L 293.175781 315.574219 L 72.675781 316.238281 L 71.867188 46.988281 Z M 292.363281 46.324219 " clip-rule="nonzero"/></clipPath><clipPath id="47d1551d52"><path d="M 125 104 L 247 104 L 247 211 L 125 211 Z M 125 104 " clip-rule="nonzero"/></clipPath><clipPath id="d7b27cdf6c"><path d="M 292.363281 46.324219 L 293.175781 315.574219 L 72.675781 316.238281 L 71.867188 46.988281 Z M 292.363281 46.324219 " clip-rule="nonzero"/></clipPath><clipPath id="16488a647c"><path d="M 292.363281 46.324219 L 293.175781 315.574219 L 72.675781 316.238281 L 71.867188 46.988281 Z M 292.363281 46.324219 " clip-rule="nonzero"/></clipPath><clipPath id="7ded326b84"><path d="M 292.363281 46.324219 L 293.175781 315.574219 L 72.675781 316.238281 L 71.867188 46.988281 Z M 292.363281 46.324219 " clip-rule="nonzero"/></clipPath><clipPath id="b1376c78a5"><path d="M 129 100 L 241 100 L 241 214 L 129 214 Z M 129 100 " clip-rule="nonzero"/></clipPath><clipPath id="d1b4814254"><path d="M 292.363281 46.324219 L 293.175781 315.574219 L 72.675781 316.238281 L 71.867188 46.988281 Z M 292.363281 46.324219 " clip-rule="nonzero"/></clipPath><clipPath id="2b78fcfa9f"><path d="M 292.363281 46.324219 L 293.175781 315.574219 L 72.675781 316.238281 L 71.867188 46.988281 Z M 292.363281 46.324219 " clip-rule="nonzero"/></clipPath><clipPath id="372959c4cb"><path d="M 292.363281 46.324219 L 293.175781 315.574219 L 72.675781 316.238281 L 71.867188 46.988281 Z M 292.363281 46.324219 " clip-rule="nonzero"/></clipPath></defs><g clip-path="url(#c4ea518f3d)"><g clip-path="url(#7699960a06)"><path stroke-linecap="butt" transform="matrix(0.75, 0, 0, 0.75, 19.645944, 19.645939)" fill="none" stroke-linejoin="miter" d="M 223.805423 -0.00187747 C 100.201248 -0.00187747 -0.00188347 100.201254 -0.00188347 223.805429 C -0.00188347 347.409604 100.201248 447.607527 223.805423 447.607527 C 347.409598 447.607527 447.607521 347.409604 447.607521 223.805429 C 447.607521 100.201254 347.409598 -0.00187747 223.805423 -0.00187747 Z M 223.805423 -0.00187747 " stroke="#05685e" stroke-width="42" stroke-opacity="1" stroke-miterlimit="4"/></g></g><g clip-path="url(#529f7f1d00)"><g clip-path="url(#c1c5353ff4)"><g clip-path="url(#fb8c872878)"><g clip-path="url(#06d4f8bf71)"><path fill="#068276" d="M 241.972656 196.40625 L 252.433594 196.375 C 263.339844 196.339844 273.902344 191.785156 281.410156 183.875 C 288.886719 176 292.710938 165.738281 292.171875 154.984375 C 291.125 133.9375 273.777344 117.503906 252.683594 117.566406 L 236.84375 117.613281 C 236.84375 117.613281 212.566406 119.886719 211.9375 105.355469 C 212.261719 117.457031 222.226562 127.183594 234.398438 127.148438 L 252.714844 127.09375 C 268.710938 127.042969 281.855469 139.503906 282.65625 155.460938 C 283.058594 163.589844 280.160156 171.347656 274.496094 177.320312 C 268.773438 183.351562 260.71875 186.824219 252.402344 186.847656 L 241.941406 186.878906 C 241.761719 186.878906 241.578125 186.882812 241.40625 186.890625 C 226.875 187.523438 229.144531 211.785156 229.144531 211.785156 L 229.136719 209.3125 C 229.117188 202.214844 234.871094 196.425781 241.972656 196.40625 M 142.621094 102.625 C 142.621094 102.625 144.730469 125.199219 131.847656 127.363281 C 131.179688 127.425781 130.503906 127.460938 129.820312 127.460938 L 112 127.515625 C 103.675781 127.542969 95.628906 131.015625 89.902344 137.046875 C 84.234375 143.015625 81.339844 150.785156 81.746094 158.90625 C 82.539062 174.863281 95.6875 187.320312 111.683594 187.269531 L 130 187.214844 C 142.171875 187.179688 152.136719 196.90625 152.457031 209.007812 C 151.828125 194.480469 127.554688 196.75 127.554688 196.75 L 111.714844 196.796875 C 90.621094 196.863281 73.273438 180.425781 72.226562 159.378906 C 72.199219 158.753906 72.179688 158.132812 72.179688 157.515625 C 72.148438 147.445312 75.949219 137.914062 82.992188 130.492188 C 90.496094 122.578125 101.058594 118.023438 111.96875 117.988281 L 129.792969 117.9375 C 136.890625 117.914062 142.648438 112.125 142.625 105.027344 L 142.617188 102.625 L 142.621094 102.625 " fill-opacity="1" fill-rule="nonzero"/></g></g></g></g><g clip-path="url(#05a308a0bc)"><g clip-path="url(#fe98cd199b)"><g clip-path="url(#b391be87f2)"><g clip-path="url(#b14e0d1c7c)"><path fill="#00a79d" d="M 147.011719 265.371094 C 141.375 265.386719 136.785156 260.832031 136.769531 255.191406 C 136.753906 249.554688 141.3125 244.972656 146.949219 244.957031 C 152.589844 244.941406 157.175781 249.496094 157.191406 255.132812 C 157.210938 260.769531 152.648438 265.351562 147.011719 265.371094 M 152.152344 105 C 152.1875 116.664062 143.253906 126.304688 131.847656 127.363281 C 144.730469 125.199219 142.621094 102.625 142.621094 102.625 L 142.617188 102.625 L 142.574219 87.214844 C 142.539062 76.308594 147.035156 65.71875 154.902344 58.171875 C 162.734375 50.652344 172.972656 46.769531 183.734375 47.238281 C 204.792969 48.15625 221.339844 65.398438 221.402344 86.484375 L 221.457031 104.792969 C 221.480469 111.886719 227.269531 117.640625 234.371094 117.621094 L 236.84375 117.613281 C 236.84375 117.613281 212.566406 119.886719 211.9375 105.355469 C 211.933594 105.183594 211.929688 105.003906 211.929688 104.820312 L 211.875 86.511719 C 211.824219 70.523438 199.285156 57.453125 183.316406 56.753906 C 175.183594 56.398438 167.4375 59.339844 161.5 65.039062 C 155.503906 70.800781 152.074219 78.867188 152.097656 87.1875 L 152.152344 105 M 209.515625 315.726562 L 207.117188 315.734375 C 204.640625 315.742188 202.605469 313.867188 202.351562 311.464844 C 196.464844 309.613281 191.238281 305.921875 187.546875 300.871094 C 183.886719 295.871094 181.941406 289.839844 181.921875 283.734375 C 181.914062 281.835938 182.097656 279.925781 182.464844 278.035156 C 183.8125 271.246094 185.472656 265.089844 187.4375 259.570312 C 186.53125 258.675781 186.011719 257.449219 186.007812 256.179688 C 186.007812 255.570312 186.125 254.949219 186.375 254.347656 C 188.996094 247.996094 192.09375 242.539062 195.574219 238.121094 C 195.621094 238.066406 195.664062 238.011719 195.710938 237.960938 C 202.132812 230.515625 210.496094 225.878906 219.652344 224.589844 L 219.609375 209.34375 C 219.570312 197.171875 229.300781 187.210938 241.40625 186.890625 C 226.875 187.523438 229.144531 211.785156 229.144531 211.785156 L 229.183594 224.460938 C 238.671875 225.519531 247.375 230.152344 254.035156 237.785156 C 254.085938 237.835938 254.128906 237.890625 254.171875 237.945312 C 257.679688 242.34375 260.8125 247.78125 263.472656 254.117188 C 264.246094 255.960938 263.773438 258.011719 262.4375 259.335938 C 264.433594 264.851562 266.136719 271 267.523438 277.777344 C 269.140625 285.730469 267.339844 294.0625 262.578125 300.644531 C 258.777344 305.90625 253.328125 309.714844 247.1875 311.53125 C 246.859375 313.839844 244.882812 315.621094 242.484375 315.628906 L 240.078125 315.632812 C 237.441406 315.640625 235.300781 313.511719 235.292969 310.875 C 235.285156 308.242188 237.410156 306.097656 240.050781 306.089844 L 242.453125 306.085938 C 244.089844 306.078125 245.53125 306.898438 246.394531 308.148438 C 251.730469 306.527344 256.460938 303.195312 259.769531 298.617188 C 263.96875 292.816406 265.558594 285.472656 264.121094 278.476562 C 262.789062 271.929688 261.15625 266.011719 259.253906 260.714844 C 257.328125 260.785156 255.476562 259.683594 254.6875 257.804688 C 252.386719 252.320312 249.726562 247.667969 246.792969 243.96875 C 240.972656 237.355469 233.1875 233.71875 224.859375 233.746094 C 216.53125 233.769531 208.773438 237.449219 202.992188 244.101562 C 200.078125 247.816406 197.449219 252.488281 195.179688 257.984375 C 194.402344 259.871094 192.550781 260.984375 190.628906 260.925781 C 188.753906 266.230469 187.164062 272.160156 185.871094 278.710938 C 184.480469 285.714844 186.113281 293.050781 190.34375 298.828125 C 193.574219 303.242188 198.128906 306.476562 203.265625 308.125 C 204.136719 306.957031 205.519531 306.195312 207.085938 306.191406 L 209.488281 306.183594 C 212.125 306.175781 214.269531 308.304688 214.277344 310.941406 C 214.285156 313.574219 212.152344 315.71875 209.515625 315.726562 M 133.167969 255.214844 C 133.144531 247.472656 139.425781 241.15625 147.171875 241.132812 C 154.917969 241.109375 161.234375 247.386719 161.257812 255.128906 C 161.28125 262.875 155 269.191406 147.253906 269.214844 C 139.511719 269.238281 133.191406 262.957031 133.167969 255.214844 M 167.863281 255.109375 C 167.835938 245.59375 161.335938 237.585938 152.546875 235.230469 L 152.46875 209.542969 C 152.46875 209.359375 152.460938 209.179688 152.460938 209.003906 C 151.828125 194.476562 127.554688 196.75 127.554688 196.75 L 130.027344 196.742188 C 137.125 196.71875 142.917969 202.472656 142.9375 209.570312 L 143.015625 234.957031 C 133.613281 236.90625 126.535156 245.265625 126.5625 255.234375 C 126.597656 266.617188 135.886719 275.847656 147.273438 275.8125 C 158.660156 275.777344 167.898438 266.492188 167.863281 255.109375 " fill-opacity="1" fill-rule="nonzero"/></g></g></g></g><g clip-path="url(#5d6ec1dc28)"><g clip-path="url(#f2293b98c0)"><g clip-path="url(#5877f0a057)"><g clip-path="url(#233e4084ff)"><path fill="#cccccc" d="M 130.410156 196.746094 C 131.636719 196.777344 132.828125 196.984375 133.945312 197.335938 C 133.914062 197.332031 133.878906 197.320312 133.847656 197.3125 L 133.835938 197.308594 C 132.78125 196.988281 131.671875 196.796875 130.527344 196.753906 C 130.488281 196.753906 130.449219 196.746094 130.410156 196.746094 M 141.964844 109.140625 C 141.996094 109.015625 142.023438 108.890625 142.054688 108.761719 L 142.0625 108.753906 C 142.382812 107.699219 142.574219 106.59375 142.613281 105.445312 C 142.617188 105.417969 142.617188 105.386719 142.621094 105.359375 C 142.59375 106.675781 142.363281 107.949219 141.964844 109.140625 M 142.710938 104.128906 C 142.726562 104.507812 142.738281 104.949219 142.746094 105.441406 C 142.738281 104.949219 142.726562 104.507812 142.710938 104.128906 M 229.140625 209.011719 C 229.164062 207.726562 229.378906 206.480469 229.757812 205.308594 C 229.746094 205.375 229.730469 205.4375 229.714844 205.496094 L 229.710938 205.507812 C 229.386719 206.5625 229.199219 207.667969 229.160156 208.816406 C 229.152344 208.882812 229.144531 208.945312 229.140625 209.011719 " fill-opacity="1" fill-rule="nonzero"/></g></g></g></g><g clip-path="url(#47d1551d52)"><g clip-path="url(#d7b27cdf6c)"><g clip-path="url(#16488a647c)"><g clip-path="url(#7ded326b84)"><path fill="#05685e" d="M 125.671875 127.382812 C 133.699219 124.378906 139.867188 117.558594 141.964844 109.140625 C 142.363281 107.949219 142.59375 106.675781 142.621094 105.359375 C 142.660156 104.953125 142.695312 104.539062 142.710938 104.128906 C 142.726562 104.507812 142.738281 104.949219 142.746094 105.441406 C 142.746094 105.574219 142.75 105.707031 142.75 105.847656 C 142.769531 112.199219 141.632812 125.628906 131.847656 127.273438 C 131.179688 127.335938 130.503906 127.367188 129.820312 127.371094 L 125.671875 127.382812 M 132.972656 196.65625 C 139.796875 196.90625 150.878906 198.691406 152.363281 207.519531 C 152.394531 207.878906 152.421875 208.242188 152.4375 208.605469 C 151.703125 198.859375 140.070312 196.921875 132.972656 196.65625 M 211.953125 105.609375 C 212.640625 116.527344 226.886719 117.761719 233.511719 117.742188 C 234.015625 117.742188 234.480469 117.730469 234.886719 117.71875 C 235 117.726562 235.109375 117.730469 235.21875 117.738281 C 230.070312 117.933594 213.851562 117.6875 212.035156 106.875 C 211.996094 106.457031 211.96875 106.035156 211.953125 105.609375 M 229.023438 208.414062 C 229.015625 206.65625 229.101562 204.363281 229.429688 201.929688 C 230.339844 195.246094 233.109375 187.515625 240.992188 186.914062 C 241.308594 186.898438 241.632812 186.890625 241.953125 186.890625 L 246.097656 186.878906 C 238.011719 189.90625 231.816406 196.804688 229.757812 205.308594 C 229.378906 206.480469 229.164062 207.726562 229.140625 209.011719 C 229.101562 209.398438 229.074219 209.777344 229.058594 210.164062 C 229.039062 209.675781 229.023438 209.085938 229.023438 208.414062 " fill-opacity="1" fill-rule="nonzero"/></g></g></g></g><g clip-path="url(#b1376c78a5)"><g clip-path="url(#d1b4814254)"><g clip-path="url(#2b78fcfa9f)"><g clip-path="url(#372959c4cb)"><path fill="#00867e" d="M 129.179688 196.65625 C 130.121094 196.621094 131.441406 196.597656 132.972656 196.65625 C 140.070312 196.921875 151.703125 198.859375 152.4375 208.605469 C 152.453125 208.917969 152.457031 209.230469 152.460938 209.546875 L 152.472656 213.691406 C 149.433594 205.578125 142.496094 199.367188 133.945312 197.335938 C 132.828125 196.984375 131.636719 196.777344 130.410156 196.746094 C 130 196.703125 129.589844 196.675781 129.179688 196.65625 M 142.710938 104.128906 C 142.710938 104.117188 142.710938 104.109375 142.714844 104.097656 C 142.730469 104.484375 142.742188 104.9375 142.746094 105.441406 C 142.738281 104.949219 142.726562 104.507812 142.710938 104.128906 M 211.9375 104.847656 L 211.921875 100.703125 C 214.976562 108.847656 221.957031 115.074219 230.554688 117.078125 L 230.5625 117.082031 C 231.613281 117.40625 232.722656 117.597656 233.875 117.636719 C 234.210938 117.671875 234.546875 117.699219 234.886719 117.71875 C 234.480469 117.730469 234.015625 117.742188 233.511719 117.742188 C 226.886719 117.761719 212.640625 116.527344 211.953125 105.609375 C 211.941406 105.355469 211.9375 105.101562 211.9375 104.847656 M 229.429688 201.929688 C 230.289062 195.542969 232.84375 188.179688 239.925781 186.988281 C 240.277344 186.957031 240.632812 186.929688 240.992188 186.914062 C 233.109375 187.515625 230.339844 195.246094 229.429688 201.929688 " fill-opacity="1" fill-rule="nonzero"/></g></g></g></g></svg>